<?xml version="1.0" encoding="utf-8"?>
<!-- Generator: Adobe Illustrator 22.0.1, SVG Export Plug-In . SVG Version: 6.00 Build 0)  -->
<svg version="1.1" id="Layer_1" xmlns="http://www.w3.org/2000/svg" xmlns:xlink="http://www.w3.org/1999/xlink" x="0px" y="0px"
	 width="250px" height="67.12px" viewBox="0 0 250 67.12" enable-background="new 0 0 250 67.12" xml:space="preserve">
<path fill="#D50032" d="M0,65.38c5-0.17,6.34-1.57,6.34-4.04V31.69c0-2.41-1.35-3.87-6.34-4.04v-0.67h31.78l0.17,12.13l-0.73,0.06
	C28.46,31.81,25.6,28.1,19.09,28.1h-7.41v17.12h3.54c4.72,0,7.07-1.57,8.59-7.75h0.73V54.1H23.8c-1.52-6.18-3.87-7.75-8.59-7.75
	h-3.54v18.64h7.41c7.64,0,10.89-3.87,13.87-11.73l0.73,0.06l-0.28,12.8H0V65.38z M46.71,49.94l6.57-16.9h0.22l5.89,16.9H46.71z
	 M63.16,60.61c1.18,3.31,0.51,4.55-4.83,4.77v0.73h17.12v-0.73c-4.38-0.56-5.22-1.63-6.79-5.84L56.2,25.74h-1.24L42.84,56.12
	c-2.53,6.29-4.43,8.25-8.08,9.26v0.73h13.02v-0.73c-5.11-0.84-6.01-2.64-3.31-9.66l1.8-4.66h13.53L63.16,60.61z M76.02,67.12h0.67
	l3.48-2.64c2.3,1.29,5.84,2.41,8.98,2.41c9.77,0,13.19-6.79,13.19-12.63c0-7.3-5.56-9.09-10.95-10.89
	c-6.34-2.13-10.05-3.82-10.05-8.93c0-4.6,3.54-7.19,7.52-7.19c4.72,0,8.25,3.76,10.89,10.89h0.79V25.86h-0.67l-1.8,2.02
	c-1.85-0.84-4.94-1.68-8.25-1.68c-7.3,0-13.02,4.44-13.02,11.79c0,7.24,5.73,8.76,11.06,10.67c7.13,2.53,10.55,4.32,10.55,9.66
	c0,3.48-2.81,7.47-8.7,7.47c-6.34,0-9.88-5.33-12.91-12.46h-0.79V67.12z M110.82,66.11h18.86v-0.73c-5-0.17-6.79-1.57-6.79-4.04
	V28.1h2.75c4.27,0,7.97,3.93,11.12,10.55l0.73-0.06l-0.34-11.62h-33.8l-0.34,11.62l0.73,0.06c3.26-7.07,7.02-10.55,11.12-10.55h2.75
	v33.24c0,2.47-1.8,3.87-6.79,4.04V66.11z M163.04,64.99V45.95h5.89c7.02,0,9.99,3.87,9.99,9.09c0,7.13-2.41,9.94-9.54,9.94H163.04z
	 M163.04,44.83V28.1h5.45c7.13,0,8.87,3.65,8.87,8.48c0,5.33-2.3,8.25-8.65,8.25H163.04z M151.36,66.11h17.18
	c12.18,0,16.28-5.73,16.28-11.23c0-5.61-4.27-8.98-12.58-9.43v-0.17c7.86-0.62,10.89-4.83,10.89-8.87c0-5-3.76-9.43-15.1-9.43
	h-16.67v0.67c5,0.17,6.34,1.63,6.34,4.04v29.64c0,2.47-1.35,3.87-6.34,4.04V66.11z M192.85,49.94l6.57-16.9h0.22l5.89,16.9H192.85z
	 M209.3,60.61c1.18,3.31,0.51,4.55-4.83,4.77v0.73h17.12v-0.73c-4.38-0.56-5.22-1.63-6.79-5.84l-12.46-33.8h-1.24l-12.13,30.37
	c-2.53,6.29-4.43,8.25-8.08,9.26v0.73h13.02v-0.73c-5.11-0.84-6.01-2.64-3.31-9.66l1.8-4.66h13.53L209.3,60.61z M232.48,47.25
	l-8.25-14.71c-1.68-2.98-1.4-4.55,4.15-4.88v-0.67h-16.84v0.67c3.37,0.67,4.72,1.74,6.4,4.66l9.99,17.29v11.73
	c0,2.47-1.18,3.87-6.51,4.04v0.73h18.3v-0.73c-5.33-0.17-6.51-1.57-6.51-4.04V48.48l8.03-13.59c3.2-5.45,5-6.57,8.76-7.24v-0.67
	h-12.97v0.67c5.5,0.84,5.5,2.25,2.81,6.85L232.48,47.25z"/>
<path d="M24.41,14.11l3.79-9.76h0.13l3.41,9.76H24.41z M49.7,22.8h-2.98V3.57c0-1.46,0.32-2.24,3.4-2.33V0.85H39.97v0.39
	c2.89,0.1,3.66,0.94,3.66,2.33v17.12c0,1.3-0.65,2.09-2.94,2.29c-2.25-0.34-2.74-1-3.61-3.33l-7.2-19.52h-0.71l-7,17.54l-0.07,0.16
	c-1.6,2.65-5.49,5-9.11,5c-3.83,0-8.3-2.76-8.3-10.54c0-8.17,3.73-11.38,7.69-11.38c3.37,0,5.84,2.24,7.43,6.62h0.39V0.1h-0.32
	L18.5,1.56c-1.52-0.78-3.4-1.26-5.77-1.26C6.25,0.3,1.09,5.52,1.09,12.42C1.09,19.4,5.66,24,12.12,24c1.37,0,2.69-0.25,3.92-0.67
	l-0.49,0.12h9.47v-0.42c-2.95-0.49-3.47-1.52-1.91-5.58l1.04-2.69h7.82l1.95,5.51c0.68,1.91,0.29,2.63-2.79,2.76v0.42h8.85h1.04H58
	l0.32-7.07l-0.42-0.03C56.03,21.41,53.98,22.8,49.7,22.8 M79.06,10.18c-3.66-1.23-5.81-2.21-5.81-5.16c0-2.66,2.04-4.15,4.35-4.15
	c2.72,0,4.77,2.17,6.29,6.29h0.45v-7.1h-0.39l-1.04,1.17c-1.07-0.49-2.85-0.97-4.77-0.97c-4.22,0-7.52,2.56-7.52,6.81
	c0,4.18,3.31,5.06,6.39,6.16c4.12,1.46,6.1,2.5,6.1,5.58c0,2.01-1.62,4.31-5.03,4.31c-3.66,0-5.71-3.08-7.46-7.2h-0.45v7.98h0.39
	l2.01-1.52c1.33,0.75,3.37,1.39,5.19,1.39c5.64,0,7.62-3.92,7.62-7.3C85.39,12.26,82.18,11.22,79.06,10.18 M99.4,1.36
	c2.46,0,4.61,2.27,6.42,6.1l0.42-0.03l-0.19-6.71H86.52l-0.19,6.71l0.42,0.03c1.88-4.09,4.05-6.1,6.42-6.1h1.59v19.2
	c0,1.43-1.04,2.24-3.92,2.34v0.42h10.9V22.9c-2.89-0.1-3.92-0.91-3.92-2.34V1.36H99.4z M109.94,13.98l3.79-9.76h0.13l3.4,9.76
	H109.94z M122.62,19.52L115.42,0h-0.71l-7.01,17.54c-1.46,3.63-2.56,4.77-4.67,5.35v0.42h7.52V22.9c-2.95-0.49-3.47-1.52-1.91-5.58
	l1.04-2.69h7.82l1.95,5.51c0.68,1.91,0.29,2.63-2.79,2.76v0.42h9.89V22.9C124.01,22.57,123.53,21.95,122.62,19.52 M122.88,0.71
	l-0.19,6.71l0.42,0.03c1.88-4.09,4.05-6.1,6.42-6.1h1.59v19.2c0,1.43-1.04,2.24-3.92,2.34v0.42h10.9V22.9
	c-2.89-0.1-3.92-0.91-3.92-2.34V1.36h1.59c2.46,0,4.61,2.27,6.42,6.1l0.42-0.03l-0.19-6.71H122.88z M162.51,15.89
	c-1.72,4.54-3.6,6.78-8.01,6.78h-4.28V11.9h2.04c2.72,0,4.09,0.91,4.96,4.47h0.42v-9.6h-0.42c-0.88,3.57-2.24,4.47-4.96,4.47h-2.04
	V1.36h4.28c3.76,0,5.42,2.14,7.01,6.39l0.42-0.03l-0.1-7.01h-18.36V1.1c2.89,0.1,3.66,0.94,3.66,2.34v17.12
	c0,1.43-0.78,2.24-3.66,2.34v0.42h19.3l0.16-7.39L162.51,15.89z"/>
</svg>
